<svg width="30" height="30" viewBox="0 0 30 30" fill="none" xmlns="http://www.w3.org/2000/svg">
<path fill-rule="evenodd" clip-rule="evenodd" d="M15.0002 18.75C16.5585 18.75 18.0897 19.0017 19.5002 19.4805V19.5H17.5002C15.8435 19.5002 14.5002 20.8433 14.5002 22.5C14.5002 24.1567 15.8435 25.4998 17.5002 25.5H19.5002V26.3828C15.2834 26.8602 11.0099 26.6678 6.84001 25.7988L5.24528 25.4668C4.65567 25.3439 4.30437 24.7277 4.58415 24.1943C5.33456 22.7639 6.56242 21.5071 8.15153 20.5586C10.1162 19.3861 12.5238 18.7501 15.0002 18.75Z" fill="white"/>
<path d="M22.5 17.5L22.5 27.5" stroke="white" stroke-width="2.5" stroke-linecap="round"/>
<path d="M27.5 22.5L17.5 22.5" stroke="white" stroke-width="2.5" stroke-linecap="round"/>
<circle cx="15" cy="10" r="6.25" fill="white"/>
</svg>
