<svg width="30" height="35" viewBox="0 0 30 35" fill="none" xmlns="http://www.w3.org/2000/svg">
<path d="M6 31.25H11.5C12.197 31.25 12.5455 31.25 12.8353 31.3076C14.0253 31.5444 14.9556 32.4747 15.1924 33.6647C15.25 33.9545 15.25 34.303 15.25 35V21C15.25 18.1716 15.25 16.7574 14.3713 15.8787C13.4926 15 12.0784 15 9.25 15H6C5.05719 15 4.58579 15 4.29289 15.2929C4 15.5858 4 16.0572 4 17V29.25C4 30.1928 4 30.6642 4.29289 30.9571C4.58579 31.25 5.05719 31.25 6 31.25Z" stroke="url(#paint0_linear_314_683)" stroke-width="3"/>
<path d="M24.5 31.25H19C18.303 31.25 17.9545 31.25 17.6647 31.3076C16.4747 31.5444 15.5444 32.4747 15.3076 33.6647C15.25 33.9545 15.25 34.303 15.25 35V21C15.25 18.1716 15.25 16.7574 16.1287 15.8787C17.0074 15 18.4216 15 21.25 15H24.5C25.4428 15 25.9142 15 26.2071 15.2929C26.5 15.5858 26.5 16.0572 26.5 17V29.25C26.5 30.1928 26.5 30.6642 26.2071 30.9571C25.9142 31.25 25.4428 31.25 24.5 31.25Z" stroke="url(#paint1_linear_314_683)" stroke-width="3"/>
<defs>
<linearGradient id="paint0_linear_314_683" x1="9.625" y1="15" x2="9.625" y2="35" gradientUnits="userSpaceOnUse">
<stop stop-color="#3503CA"/>
<stop offset="1" stop-color="#047EFB"/>
</linearGradient>
<linearGradient id="paint1_linear_314_683" x1="20.875" y1="15" x2="20.875" y2="35" gradientUnits="userSpaceOnUse">
<stop stop-color="#3503CA"/>
<stop offset="1" stop-color="#047EFB"/>
</linearGradient>
</defs>
</svg>
