<svg width="38" height="38" viewBox="0 0 38 38" fill="none" xmlns="http://www.w3.org/2000/svg">
<path d="M34.8335 19.0002L36.0048 18.0631L36.7544 19.0002L36.0048 19.9372L34.8335 19.0002ZM20.5835 20.5002C19.7551 20.5002 19.0835 19.8286 19.0835 19.0002C19.0835 18.1717 19.7551 17.5002 20.5835 17.5002V19.0002V20.5002ZM28.5002 11.0835L29.6715 10.1465L36.0048 18.0631L34.8335 19.0002L33.6622 19.9372L27.3289 12.0205L28.5002 11.0835ZM34.8335 19.0002L36.0048 19.9372L29.6715 27.8539L28.5002 26.9168L27.3289 25.9798L33.6622 18.0631L34.8335 19.0002ZM34.8335 19.0002V20.5002H20.5835V19.0002V17.5002H34.8335V19.0002Z" fill="white"/>
<path d="M22.1665 12.8754V9.72168C22.1665 8.10334 22.1665 7.29417 21.6925 6.73467C21.2186 6.17518 20.4204 6.04216 18.8241 5.7761L10.1529 4.3309C6.9098 3.79039 5.28825 3.52013 4.22738 4.41883C3.1665 5.31752 3.1665 6.96144 3.1665 10.2493V27.7504C3.1665 31.0382 3.1665 32.6822 4.22738 33.5808C5.28825 34.4795 6.9098 34.2093 10.1529 33.6688L18.8241 32.2236C20.4204 31.9575 21.2186 31.8245 21.6925 31.265C22.1665 30.7055 22.1665 29.8963 22.1665 28.278V25.4376" stroke="white" stroke-width="3"/>
</svg>
