<svg width="50" height="50" viewBox="0 0 50 50" fill="none" xmlns="http://www.w3.org/2000/svg">
<path d="M33.3334 18.7498H31.8334C31.8334 22.5238 28.774 25.5832 25 25.5832V27.0832V28.5832C30.4308 28.5832 34.8334 24.1806 34.8334 18.7498H33.3334ZM25 27.0832V25.5832C21.2261 25.5832 18.1667 22.5238 18.1667 18.7498H16.6667H15.1667C15.1667 24.1806 19.5692 28.5832 25 28.5832V27.0832ZM16.6667 18.7498H18.1667C18.1667 14.9759 21.2261 11.9165 25 11.9165V10.4165V8.9165C19.5692 8.9165 15.1667 13.319 15.1667 18.7498H16.6667ZM25 10.4165V11.9165C28.774 11.9165 31.8334 14.9759 31.8334 18.7498H33.3334H34.8334C34.8334 13.319 30.4308 8.9165 25 8.9165V10.4165ZM18.75 33.3332V34.8332H31.25V33.3332V31.8332H18.75V33.3332ZM4.16669 24.9998H5.66669C5.66669 14.3223 14.3225 5.6665 25 5.6665V4.1665V2.6665C12.6657 2.6665 2.66669 12.6655 2.66669 24.9998H4.16669ZM25 4.1665V5.6665C35.6775 5.6665 44.3334 14.3223 44.3334 24.9998H45.8334H47.3334C47.3334 12.6655 37.3344 2.6665 25 2.6665V4.1665ZM45.8334 24.9998H44.3334C44.3334 30.4828 42.0529 35.4305 38.3847 38.9508L39.4233 40.033L40.4619 41.1153C44.6952 37.0527 47.3334 31.3331 47.3334 24.9998H45.8334ZM39.4233 40.033L38.3847 38.9508C34.9095 42.2858 30.1954 44.3332 25 44.3332V45.8332V47.3332C31.0003 47.3332 36.4506 44.9649 40.4619 41.1153L39.4233 40.033ZM31.25 33.3332V34.8332C34.5638 34.8332 37.3297 37.1935 37.9521 40.3254L39.4233 40.033L40.8946 39.7407C39.9985 35.232 36.0229 31.8332 31.25 31.8332V33.3332ZM25 45.8332V44.3332C19.8046 44.3332 15.0905 42.2858 11.6153 38.9508L10.5767 40.033L9.5381 41.1153C13.5495 44.9649 18.9998 47.3332 25 47.3332V45.8332ZM10.5767 40.033L11.6153 38.9508C7.94713 35.4305 5.66669 30.4828 5.66669 24.9998H4.16669H2.66669C2.66669 31.3331 5.30484 37.0527 9.5381 41.1153L10.5767 40.033ZM18.75 33.3332V31.8332C13.9772 31.8332 10.0015 35.232 9.10549 39.7407L10.5767 40.033L12.0479 40.3254C12.6704 37.1935 15.4362 34.8332 18.75 34.8332V33.3332Z" fill="white"/>
</svg>
