<svg width="30" height="24" viewBox="0 0 30 24" fill="none" xmlns="http://www.w3.org/2000/svg">
<rect x="5" y="4" width="20" height="5" rx="1" stroke="url(#paint0_linear_357_7449)" stroke-width="2"/>
<path d="M5 17C5 16.0572 5 15.5858 5.29289 15.2929C5.58579 15 6.05719 15 7 15H11.25V18C11.25 18.9428 11.25 19.4142 10.9571 19.7071C10.6642 20 10.1928 20 9.25 20H7C6.05719 20 5.58579 20 5.29289 19.7071C5 19.4142 5 18.9428 5 18V17Z" stroke="url(#paint1_linear_357_7449)" stroke-width="2"/>
<path d="M18.75 15H23C23.9428 15 24.4142 15 24.7071 15.2929C25 15.5858 25 16.0572 25 17V18C25 18.9428 25 19.4142 24.7071 19.7071C24.4142 20 23.9428 20 23 20H20.75C19.8072 20 19.3358 20 19.0429 19.7071C18.75 19.4142 18.75 18.9428 18.75 18V15Z" stroke="url(#paint2_linear_357_7449)" stroke-width="2"/>
<defs>
<linearGradient id="paint0_linear_357_7449" x1="15" y1="4" x2="15" y2="9" gradientUnits="userSpaceOnUse">
<stop stop-color="#3405CB"/>
<stop offset="1" stop-color="#0B6DF4"/>
</linearGradient>
<linearGradient id="paint1_linear_357_7449" x1="8.125" y1="15" x2="8.125" y2="20" gradientUnits="userSpaceOnUse">
<stop stop-color="#3405CB"/>
<stop offset="1" stop-color="#0B6DF4"/>
</linearGradient>
<linearGradient id="paint2_linear_357_7449" x1="21.875" y1="15" x2="21.875" y2="20" gradientUnits="userSpaceOnUse">
<stop stop-color="#3405CB"/>
<stop offset="1" stop-color="#0B6DF4"/>
</linearGradient>
</defs>
</svg>
